PathFileType	4	(X/Y/Z)	C:/Users/opensim2020/Desktop/walking_exp_matlab/subject03/subject03_trc/subject03_walking16_run_cyclic.trc	
DataRate	CameraRate	NumFrames	NumMarkers	Units	OrigDataRate	OrigDataStartFrame	OrigNumFrames	
100.00	100.00	8	49	mm	100.00	241	67	
Frame#	Time	RKNE			RTOE			RWRB			LTHI			RELB			RFRM			RUPA			RASI			LTIB			RWRA			RTHI			LSHO			LTOE			RTIB			LWRA			CLAV			LASI			RSHO			RFHD			STRN			LHEE			RFIN			RBHD			LFRM			C7			LWRB			LFIN			LUPA			LBHD			LELB			RANK			RHEE			RBAK			LPSI			T10			LFHD			RPSI			LKNE			LANK			*39			*40			*41			*42			*43			*44			*45			*46			*47			*48			
		X1	Y1	Z1	X2	Y2	Z2	X3	Y3	Z3	X4	Y4	Z4	X5	Y5	Z5	X6	Y6	Z6	X7	Y7	Z7	X8	Y8	Z8	X9	Y9	Z9	X10	Y10	Z10	X11	Y11	Z11	X12	Y12	Z12	X13	Y13	Z13	X14	Y14	Z14	X15	Y15	Z15	X16	Y16	Z16	X17	Y17	Z17	X18	Y18	Z18	X19	Y19	Z19	X20	Y20	Z20	X21	Y21	Z21	X22	Y22	Z22	X23	Y23	Z23	X24	Y24	Z24	X25	Y25	Z25	X26	Y26	Z26	X27	Y27	Z27	X28	Y28	Z28	X29	Y29	Z29	X30	Y30	Z30	X31	Y31	Z31	X32	Y32	Z32	X33	Y33	Z33	X34	Y34	Z34	X35	Y35	Z35	X36	Y36	Z36	X37	Y37	Z37	X38	Y38	Z38	X39	Y39	Z39	X40	Y40	Z40	X41	Y41	Z41	X42	Y42	Z42	X43	Y43	Z43	X44	Y44	Z44	X45	Y45	Z45	X46	Y46	Z46	X47	Y47	Z47	X48	Y48	Z48	X49	Y49	Z49	

48	0.470	361.52487	109.53260	512.07330	295.81189	333.74295	69.87814	486.38321	-155.39566	956.88287	86.89535	-170.00903	633.21790	495.57953	-270.76489	1154.83582	491.83112	-204.83659	1046.25879	475.23935	-221.00433	1239.24634	349.90399	-26.02902	931.81744	120.65311	-426.81824	376.25986	454.92429	-126.33818	989.39679	405.61679	1.97127	651.09937	98.87624	-42.85823	1389.28442	185.05823	-621.22644	113.25902	364.62323	136.91983	325.84091	195.29161	82.73799	1198.22815	248.45534	-8.15773	1335.19287	120.56786	-23.43396	916.65936	389.81036	-75.98116	1372.01746	305.29575	-44.62606	1628.67273	248.02759	35.48132	1167.16199	197.05470	-632.56079	301.50455	488.16653	-88.82500	924.54681	292.44635	-146.70450	1548.93237	88.32482	69.50678	1151.30261	225.01785	-133.30396	1405.58276	181.12057	127.13734	1170.01672	260.71753	149.31383	1205.67883	4.34835	-5.65080	1217.44519	163.67270	-127.83949	1540.39856	-6.72951	24.98735	1116.32153	317.00854	189.27058	116.58181	260.79657	153.73865	94.36947	301.36560	-197.97806	1257.37891	167.34584	-175.40866	972.50787	220.61850	-174.89081	1105.60657	174.75032	-21.15239	1620.53979	314.37494	-179.63748	975.66730	119.90115	-241.69704	466.07968	156.57819	-601.21094	267.01328																						208.12749	-124.81490	1654.82715						 
49	0.480	361.48239	140.02054	509.57495	292.39011	346.82278	57.22770	489.55807	-113.64935	949.00842	87.40804	-126.86608	625.99365	502.06448	-231.21706	1145.24109	496.18597	-164.23105	1037.54346	480.89038	-183.63976	1229.95764	350.68906	6.29505	927.44586	119.84263	-384.83566	376.66177	457.02853	-86.01432	981.87213	406.39050	32.08960	647.14563	99.65943	-11.09308	1387.04517	184.38116	-591.43842	126.36983	363.13702	161.46475	319.93869	197.23074	116.46587	1184.67053	249.64915	23.78454	1332.80554	121.07566	10.99266	914.22803	391.85046	-43.48126	1367.30518	307.11539	-11.98640	1625.92834	251.89299	70.52580	1165.59045	195.20174	-597.14435	315.10986	488.41382	-46.88087	916.77313	294.37817	-114.08188	1545.98608	88.62540	99.71097	1141.70300	227.38431	-100.74346	1402.14636	181.28017	158.44809	1154.70349	261.57025	184.16838	1186.31848	2.99928	21.95373	1214.34607	165.59848	-95.57252	1537.55713	-7.25555	51.11014	1111.61096	314.11304	204.07072	108.65160	257.12585	168.10683	88.24791	304.45651	-165.48134	1250.76233	166.68291	-142.53555	967.80664	221.16321	-142.29967	1101.29736	176.38013	11.04762	1617.92017	313.94730	-147.47916	971.00391	118.95445	-195.60597	457.50259	155.15178	-566.07648	279.13196																						210.04347	-93.05134	1651.93555						 
50	0.490	361.24338	170.51697	506.78757	288.55972	354.51730	42.68348	492.20450	-70.92790	939.56079	87.11931	-83.98528	618.44092	508.60492	-190.35797	1133.93420	500.79428	-122.44101	1027.25195	486.70901	-145.49733	1219.34412	351.56967	38.34325	923.00458	118.73833	-340.50714	375.51321	459.03253	-44.98808	972.60846	405.98752	63.77475	644.79218	100.72368	20.93872	1383.58997	185.16180	-558.70062	138.97295	361.96399	184.04855	313.13763	199.19769	149.97780	1167.07190	250.73909	55.72512	1329.27136	121.70200	45.16556	911.03314	393.81256	-11.12084	1361.68591	308.74460	20.37725	1622.04065	247.24428	98.59367	1160.84668	192.01175	-558.15759	327.80667	488.89926	-3.86144	907.51135	296.33701	-81.48096	1541.97729	89.47786	128.37178	1129.22021	229.46573	-68.34413	1397.80115	180.28618	190.22693	1135.97473	261.25082	219.45103	1162.08826	1.80111	48.69575	1210.27209	167.46567	-63.33073	1533.71069	-6.89445	75.80279	1105.73889	311.38824	213.97292	99.90337	253.95419	177.34256	81.49285	307.43005	-132.84998	1243.49878	165.78366	-109.78727	961.86273	221.35274	-109.84533	1096.15894	178.07280	43.20554	1614.30432	313.01251	-115.90794	965.77313	117.88539	-148.47308	448.05963	152.93367	-527.57214	289.80234																						212.16312	-61.66897	1648.28198						 
51	0.500	361.29922	200.95035	502.09467	283.98639	362.46457	34.93721	495.17789	-27.40477	928.68451	86.25373	-41.94352	610.60382	515.20264	-148.37181	1121.26477	505.61099	-79.62862	1015.57556	492.40262	-106.76053	1207.69470	352.88965	70.15811	918.49304	117.31070	-294.36783	373.48819	461.44571	-2.69058	962.04785	404.50385	96.33507	643.38525	101.91611	53.30125	1378.79626	186.13272	-522.59485	150.69093	360.75867	204.65172	305.47675	200.37811	183.68082	1145.94836	251.73120	87.68739	1324.58557	122.25307	78.85537	907.00360	395.64276	21.23973	1355.12915	310.53198	52.94672	1617.09741	247.65019	130.87746	1155.93396	188.25874	-516.08716	339.33859	489.38156	39.81324	896.84723	298.24539	-48.85796	1536.96924	88.73487	157.33200	1114.95447	231.31587	-35.83464	1392.98865	178.00122	221.95445	1114.17163	259.00555	255.13062	1134.04993	0.85317	75.05817	1205.29688	169.25908	-31.07805	1528.93787	-6.53345	99.64764	1099.10046	307.88232	220.25787	91.16863	252.64511	181.31935	71.41151	310.29874	-100.21578	1235.71179	164.32188	-77.71540	955.05658	221.24106	-77.61961	1090.59741	179.64780	75.36781	1609.59473	311.46964	-84.56301	959.87701	116.20851	-100.77338	437.69348	150.38707	-486.27405	299.30942																						214.22609	-29.23581	1643.38513						 
52	0.510	361.79779	231.03096	495.28183	281.10440	364.71671	32.85405	498.61935	17.34243	916.78857	84.91547	-0.84442	602.39050	521.57452	-105.49720	1107.46838	510.25867	-36.10397	1002.66077	497.82980	-67.42197	1195.12598	354.56305	102.03326	914.35779	115.66150	-246.30658	370.56143	463.94604	40.67241	950.40540	402.20340	129.68515	641.65625	103.19174	85.92843	1372.72583	185.98035	-482.44257	161.19798	358.57245	222.90858	297.08389	200.52263	217.01996	1121.70581	252.63631	119.69820	1318.85217	122.68999	112.07278	902.02948	397.48529	53.58589	1347.62939	312.30206	85.70425	1611.41663	248.05911	163.31964	1150.10962	184.67366	-471.46906	349.46890	490.12885	84.68459	885.08984	300.09729	-16.30959	1531.16602	87.80011	184.98439	1098.80188	233.00627	-3.52400	1387.35718	174.41367	252.94102	1089.64441	254.88675	289.87006	1102.54199	0.34868	101.26400	1199.38171	171.05772	1.13731	1523.38196	-5.87879	122.81577	1091.58472	303.64117	220.87370	83.83721	250.65633	179.55699	60.31954	313.03531	-67.51502	1227.53979	162.67828	-45.47301	947.17212	221.21805	-45.44696	1084.62598	181.23251	107.61752	1604.12024	309.68359	-53.66940	953.67950	114.79626	-52.14355	426.86963	147.73282	-442.52167	307.69858																						216.56093	2.54219	1638.00037						 
53	0.520	361.91098	261.06982	487.62119	279.09961	363.13992	32.95654	501.59119	62.60392	903.83252	83.35713	39.73531	593.51556	527.58105	-61.89611	1092.80273	515.03284	8.78289	988.88684	502.75748	-27.61934	1181.65503	355.39645	132.86389	910.14587	113.70947	-196.57521	367.08194	466.35202	84.68505	937.83936	401.17908	162.87445	638.02618	104.27467	118.50771	1365.75977	184.39809	-437.82208	170.36192	357.01620	239.45706	289.71106	199.55345	249.55376	1094.62085	253.45792	151.88579	1312.39453	123.12139	144.48158	896.14844	399.33905	86.17902	1339.20642	313.98669	118.35744	1605.10791	248.27882	195.53255	1143.27148	181.51848	-424.49390	358.05948	490.45926	129.61452	872.22485	301.96246	16.38316	1524.77014	86.41801	211.95656	1081.13330	234.72656	28.55463	1380.96497	169.63950	282.69196	1062.84692	248.57561	323.32275	1068.23926	0.46685	127.45793	1192.26965	172.80362	33.26065	1517.17810	-5.07872	145.35513	1083.20605	299.87781	219.96970	78.59195	247.53928	177.80901	52.74150	315.64536	-34.87405	1219.00244	161.07753	-13.79019	938.59424	221.37212	-13.42092	1078.02295	182.71606	139.82181	1598.03638	307.96024	-23.30202	947.09186	112.29490	-2.19638	416.14731	145.29839	-395.35953	315.21771																						218.32484	35.63615	1631.58154						 
54	0.530	360.81015	290.49893	479.22961	279.23877	364.19574	32.64124	504.57700	109.33854	890.44763	81.65594	80.65914	584.02216	533.24817	-17.43616	1077.48340	519.40533	54.58463	974.37335	507.12280	12.58855	1167.35559	356.64056	163.35863	905.64392	111.54425	-145.09221	363.20242	468.69482	129.47295	924.68530	403.61545	195.07948	631.54669	105.11510	150.92281	1358.17236	181.24043	-388.84897	177.48775	355.88950	256.41681	283.78906	197.05524	280.87335	1065.21667	254.23026	184.23802	1305.55164	123.60349	176.20073	889.50085	401.20889	118.92909	1330.15405	315.53470	150.95064	1598.78223	248.27472	227.54918	1135.69739	178.87227	-375.19089	364.79160	490.93143	175.95108	859.45221	303.80893	49.06157	1518.10596	84.18175	238.34892	1062.05432	236.52272	60.54142	1373.96460	163.23027	311.52579	1034.72974	239.82227	355.12805	1031.81714	1.05699	153.66917	1183.98120	174.54695	65.40106	1510.62317	-4.38407	167.83397	1074.17761	297.12048	222.93391	74.42986	244.97961	178.35168	47.61502	318.05362	-2.44435	1210.27039	159.61273	17.20319	929.34869	221.63112	18.49207	1071.04419	184.00404	171.89674	1591.80750	306.48358	6.63054	940.12756	110.02960	48.79127	405.31857	143.21107	-345.67438	321.45285																						220.25209	67.86880	1624.97339						 
55	0.540	359.65253	317.50104	469.63089	278.02890	364.52704	32.62319	506.78610	156.75357	877.16339	79.90250	122.49086	574.29718	538.58710	28.00608	1061.80579	522.79480	101.42158	959.72058	510.99194	53.20299	1152.49194	357.90668	193.83022	900.64069	109.28896	-91.67993	358.75696	469.99225	175.97240	911.58691	403.57205	224.40677	622.88580	105.41893	183.22572	1350.48779	176.49374	-335.74667	182.10103	353.48376	274.12994	278.39182	192.72479	311.05203	1034.24097	254.84077	216.91368	1298.66101	124.24941	206.99593	882.39636	402.94913	151.85655	1320.99634	316.80795	183.41402	1592.69507	248.01544	259.30048	1127.75208	176.93501	-323.96997	369.37927	490.85080	223.25099	847.32501	305.74261	81.79300	1511.51306	81.18962	264.29813	1042.16919	238.48489	92.43114	1366.64465	154.83087	339.06851	1005.09070	228.38675	385.08762	993.99646	2.12305	179.70624	1174.61853	176.36308	97.55510	1504.05701	-3.97952	190.31815	1064.55835	293.67200	224.26450	72.03613	241.59380	178.68004	44.37045	320.46228	30.02258	1201.34961	158.43430	47.40156	919.82251	222.07614	50.24464	1063.66321	185.17026	203.91229	1585.75146	305.74454	36.25147	933.20361	108.18443	100.71746	394.31149	141.35780	-293.41391	326.36664																						222.01596	99.89226	1618.40674						 
